<svg fill="currentColor" height="32" viewBox="0 0 32 32" width="32" xmlns="http://www.w3.org/2000/svg" aria-hidden="true">
	<path d="m9.45312 12.1485v14.8515h-5.15625v-14.8515zm.32813-4.58583c.01042.72934-.2526 1.33878-.78906 1.82834-.53646.48955-1.24219.73429-2.11719.73429h-.03125c-.85417 0-1.54167-.24474-2.0625-.73429-.52083-.48956-.78125-1.099-.78125-1.82834 0-.73933.26823-1.35127.80469-1.83583s1.23698-.72684 2.10156-.72684 1.55729.24228 2.07813.72684c.52083.48456.78645 1.0965.79687 1.83583zm18.21875 10.92503v8.5123h-5.1406v-7.9428c0-1.049-.211-1.8708-.6328-2.4652-.4219-.5945-1.0808-.8917-1.9766-.8917-.6562 0-1.2057.1723-1.6484.517s-.7735.7718-.9922 1.2813c-.1146.2998-.1719.7044-.1719 1.2139v8.2875h-5.1406c.0208-3.9864.0312-7.2184.0312-9.6962 0-2.4777-.0052-3.9564-.0156-4.436l-.0156-.7193h5.1406v2.158h-.0313c.2084-.3197.4219-.5994.6407-.8392.2187-.2398.513-.4995.8828-.7793.3698-.2797.8229-.497 1.3594-.6519.5364-.1549 1.1328-.2323 1.789-.2323 1.7813 0 3.2136.567 4.2969 1.701 1.0833 1.1339 1.625 2.7949 1.625 4.9829z"></path>
</svg>