<svg fill="currentColor" height="32" viewBox="0 0 32 32" width="32" xmlns="http://www.w3.org/2000/svg" aria-hidden="true">
	<path d="m27 9.12019c-.8021.36058-1.6686.60577-2.5996.73558.9739-.57692 1.64-1.42067 1.998-2.53125-.931.54808-1.8906.91587-2.8789 1.10337-.8737-.95193-1.9694-1.42789-3.2871-1.42789-1.2461 0-2.3095.44351-3.1904 1.33053s-1.3213 1.95797-1.3213 3.21277c0 .4182.0358.7644.1074 1.0384-1.8476-.1009-3.5807-.5697-5.1992-1.4062-1.61848-.8366-2.99348-1.95435-4.12499-3.35338-.41537.72115-.62305 1.48557-.62305 2.29328 0 1.6442.65169 2.9062 1.95508 3.786-.67318-.0144-1.38933-.2019-2.14844-.5625v.0433c0 1.0817.35807 2.0445 1.07422 2.8882.71614.8438 1.59701 1.3666 2.64258 1.5685-.41537.1154-.7806.1731-1.09571.1731-.18619 0-.46549-.0288-.83789-.0865.30078.9086.83431 1.6586 1.60059 2.25.76628.5913 1.63641.8942 2.61031.9086-1.6614 1.2981-3.53056 1.9471-5.60738 1.9471-.3724 0-.73047-.0216-1.07422-.0649 2.11979 1.3558 4.42578 2.0337 6.918 2.0337 1.6041 0 3.108-.256 4.5117-.768 1.4036-.512 2.6068-1.1971 3.6094-2.0553s1.8655-1.8462 2.5888-2.964c.7233-1.1177 1.2604-2.286 1.6114-3.5048.3509-1.2187.5263-2.4339.5263-3.6454 0-.2596-.0071-.4543-.0215-.5841.9024-.6491 1.6543-1.4351 2.2559-2.35821z"></path>
</svg>