<svg fill="currentColor" height="32" viewBox="0 0 32 32" width="32" xmlns="http://www.w3.org/2000/svg" aria-hidden="true">
	<path clip-rule="evenodd" d="m19.1698 17.2974c.2509.091 1.5965.7499 1.8702.8862.0534.0266.1032.0506.1495.0728.191.0919.32.1539.3751.2454.0684.1136.0684.659-.1596 1.2953-.2282.6363-1.3216 1.217-1.8475 1.2952-.4715.0702-1.0682.0994-1.7239-.108-.3975-.1254-.9073-.2931-1.5603-.5737-2.5659-1.1027-4.3-3.5778-4.6277-4.0455-.0229-.0328-.039-.0557-.0479-.0676l-.0023-.003c-.1451-.1926-1.1154-1.4812-1.1154-2.8148 0-1.2547.6193-1.9123.9044-2.2151.0195-.0208.0375-.0398.0536-.0573.2508-.2727.5474-.3409.7298-.3409.1825 0 .3651.0017.5246.0096.0197.001.0402.0009.0614.0008.1595-.0009.3583-.002.5544.4668.0752.1797.1849.4457.3008.7265.236.5716.4972 1.2047.5431 1.2961.0685.1363.1141.2954.0228.4772-.0017.0035-.0034.0068-.0051.0102-.0118.0236-.0228.046-.0334.0675-.0685.1392-.1189.2416-.2352.3767-.0457.0531-.0929.1103-.1401.1676-.0942.1141-.1884.2283-.2704.3096-.137.1359-.2797.2833-.1201.5559.1597.2728.709 1.1648 1.5227 1.887.8746.7764 1.6347 1.1046 2.0201 1.271.0753.0325.1362.0588.181.0811.2736.1364.4333.1135.5929-.0682.1597-.1818.6842-.7954.8667-1.0681.1825-.2726.3649-.2272.6158-.1363zm-3.1239-12.2974c2.9303.00115 5.6807 1.13645 7.7488 3.19706 2.0681 2.06054 3.2064 4.79954 3.2053 7.71244-.0024 6.0108-4.9169 10.9014-10.954 10.9014h-.0045c-1.8333-.0006-3.6347-.4584-5.2346-1.3269l-5.8069 1.516 1.55401-5.6491c-.95861-1.6533-1.46299-3.5287-1.4622-5.4501.00242-6.0107 4.91639-10.9008 10.95409-10.9008z" fill-rule="evenodd"></path>
</svg>